<svg xmlns="http://www.w3.org/2000/svg" width="72" height="72" fill="none" viewBox="0 0 72 72">
  <g clip-path="url(#a)">
    <path fill="#8D5CF6" d="M70.8 28.8H50.4v-3.6a1.2 1.2 0 0 0-.494-.97L37.2 14.99V10.8h13.2a1.2 1.2 0 0 0 1.2-1.2V2.4a1.2 1.2 0 0 0-1.2-1.2H37.2a1.2 1.2 0 0 0-2.4 0v13.79l-12.706 9.24a1.2 1.2 0 0 0-.494.97v3.6H1.2A1.2 1.2 0 0 0 0 30v40.8A1.2 1.2 0 0 0 1.2 72h69.6a1.2 1.2 0 0 0 1.2-1.2V30a1.2 1.2 0 0 0-1.2-1.2ZM37.2 3.6h12v4.8h-12V3.6Zm-15.6 66H2.4V31.2h19.2v38.4Zm19.2 0h-9.6v-12h9.6v12Zm7.2 0h-4.8V56.4a1.2 1.2 0 0 0-1.2-1.2H30a1.2 1.2 0 0 0-1.2 1.2v13.2H24V25.81l12-8.727 12 8.728V69.6Zm21.6 0H50.4V31.2h19.2v38.4Z"/>
    <path fill="#8D5CF6" d="M10.8 34.8H6v2.4h4.8v-2.4Zm7.2 0h-4.8v2.4H18v-2.4Zm-7.2 4.8H6V42h4.8v-2.4Zm7.2 0h-4.8V42H18v-2.4Zm-7.2 4.8H6v2.4h4.8v-2.4Zm7.2 0h-4.8v2.4H18v-2.4Zm-7.2 4.8H6v2.4h4.8v-2.4Zm7.2 0h-4.8v2.4H18v-2.4ZM10.8 54H6v2.4h4.8V54Zm7.2 0h-4.8v2.4H18V54Zm40.8-19.2H54v2.4h4.8v-2.4Zm7.2 0h-4.8v2.4H66v-2.4Zm-7.2 4.8H54V42h4.8v-2.4Zm7.2 0h-4.8V42H66v-2.4Zm-7.2 4.8H54v2.4h4.8v-2.4Zm7.2 0h-4.8v2.4H66v-2.4Zm-7.2 4.8H54v2.4h4.8v-2.4Zm7.2 0h-4.8v2.4H66v-2.4ZM58.8 54H54v2.4h4.8V54Zm7.2 0h-4.8v2.4H66V54ZM27.6 36a8.41 8.41 0 0 0 8.4 8.4 8.4 8.4 0 1 0-8.4-8.4ZM42 36a6 6 0 0 1-12 0 6.007 6.007 0 0 1 6-6 6 6 0 0 1 6 6Z"/>
    <path fill="#8D5CF6" d="M34.8 34.8h-2.4v2.4h4.8v-6h-2.4v3.6Z"/>
  </g>
  <defs>
    <clipPath id="a">
      <path fill="#fff" d="M0 0h72v72H0z"/>
    </clipPath>
  </defs>
</svg>
