<svg xmlns="http://www.w3.org/2000/svg" width="71" height="72" fill="none" viewBox="0 0 71 72">
  <g clip-path="url(#a)">
    <path fill="#2DC071" d="M65.671 37.744a2.4 2.4 0 0 0-2.355-1.948h-2.317l-.17-1.02a2.412 2.412 0 0 0-2.006-1.99c-.228-.035-.458-.06-.685-.09a7.32 7.32 0 0 0-.912-5.351 4.91 4.91 0 0 0-3.558-6.57 10.21 10.21 0 0 0-9.976-8.334c-.12 0-.227.015-.34.019a4.881 4.881 0 0 0-7.468-.929 8.236 8.236 0 0 0-4.481-1.33 8.331 8.331 0 0 0-6.55 3.225 5.977 5.977 0 0 0-7.639 5.371 4.94 4.94 0 0 0-3.025 4.55c.004.345.044.688.12 1.024a9.658 9.658 0 0 0-1.15 8.28c-.322.044-.651.084-.96.13a2.414 2.414 0 0 0-2.022 1.987l-.17 1.025H7.684a2.4 2.4 0 0 0-2.355 1.943L.075 64.714A3.6 3.6 0 0 0 3.615 69h25.026c.993 1.64 4.012 2.4 6.859 2.4 2.816 0 5.807-.743 6.829-2.4h25.055a3.6 3.6 0 0 0 3.541-4.285l-5.254-26.971ZM17.818 25.52a2.535 2.535 0 0 1 1.296-4.707 2.488 2.488 0 0 1 2.015 1.018 1.2 1.2 0 0 0 1.927-1.43 4.848 4.848 0 0 0-3.403-1.92 3.648 3.648 0 0 1 3.558-2.89c.146.008.292.024.436.049-.096.246-.18.497-.252.751a1.2 1.2 0 0 0 2.324.6 5.837 5.837 0 0 1 .622-1.502 5.926 5.926 0 0 1 5.062-2.889 5.828 5.828 0 0 1 3.179.96 4.88 4.88 0 0 0-.282 1.573 1.2 1.2 0 0 0 2.4 0 2.524 2.524 0 1 1 5.048 0 1.2 1.2 0 0 0 2.4 0c0-.092-.023-.18-.027-.272a7.79 7.79 0 0 1 7.106 6.007 4.87 4.87 0 0 0-1.553.774 1.2 1.2 0 1 0 1.44 1.92 2.53 2.53 0 0 1 3.71 3.273 2.56 2.56 0 0 1-1.136 1.05 1.2 1.2 0 0 0 .511 2.28c.176.001.35-.038.51-.113a4.98 4.98 0 0 0 .896-.56 5.125 5.125 0 0 1-1.016 5.117l-.028.03a5.183 5.183 0 0 1-6.12 1.124 4.79 4.79 0 0 1-.581-.363 4.087 4.087 0 0 0 .317-4.224 1.2 1.2 0 1 0-2.145 1.08 1.787 1.787 0 0 1-.578 2.262 1.811 1.811 0 0 1-2.607-.665 1.2 1.2 0 1 0-2.146 1.075 4.16 4.16 0 0 0 3.739 2.313 4.117 4.117 0 0 0 1.506-.296c.428.375.9.697 1.406.96a7.392 7.392 0 0 0 5.543.512 7.649 7.649 0 0 1-4.942 3.03 1.2 1.2 0 0 0 .38 2.37 9.862 9.862 0 0 0 2.128-.622c.37.654.67 1.345.896 2.06a1.295 1.295 0 0 1-.725 1.578 1.359 1.359 0 0 1-1.55-.416 7.66 7.66 0 0 0-3.512-2.334c-2.593-.868-3.594-1.645-4.019-2.49a11.529 11.529 0 0 0 1.84-.384 1.2 1.2 0 1 0-.706-2.294 9.1 9.1 0 0 1-2.07.38 8.908 8.908 0 0 1-3.978-.6 1.2 1.2 0 0 0-1.345.335 5.138 5.138 0 0 1-8.287-6.008 1.204 1.204 0 0 0-2.065-1.237 7.495 7.495 0 0 0-.687 1.544 1.8 1.8 0 0 1-1.705-1.769v-.03a1.187 1.187 0 0 0-1.2-1.184 1.212 1.212 0 0 0-1.2 1.214 4.176 4.176 0 0 0 3.726 4.142c.005.402.041.803.11 1.2a7.333 7.333 0 0 1-8.297-10.043c.268.271.568.51.892.711a1.2 1.2 0 0 0 1.239-2.055v.005Zm-5.28 9.64c.553-.082 1.124-.154 1.692-.229a9.689 9.689 0 0 0 10.524 4.27 7.517 7.517 0 0 0 11.774 1.995c.816.244 1.656.396 2.505.454.58 2.198 2.254 3.53 5.774 4.71a5.317 5.317 0 0 1 2.443 1.61 3.822 3.822 0 0 0 2.9 1.361c.489 0 .973-.099 1.424-.29a3.695 3.695 0 0 0 2.243-3.397 3.56 3.56 0 0 0-.183-1.136 13.113 13.113 0 0 0-1.06-2.442 10.116 10.116 0 0 0 3.987-6.098 7.52 7.52 0 0 0 .691-.967c.402.051.804.097 1.209.164l4.332 26.057a41.19 41.19 0 0 0-26.093 0V46.2a1.2 1.2 0 1 0-2.4 0v15.027a41.197 41.197 0 0 0-26.093-.01l4.33-26.058ZM2.68 66.158a1.19 1.19 0 0 1-.252-.984l5.255-26.979h1.92L5.838 60.827a2.408 2.408 0 0 0 3.097 2.68 40.144 40.144 0 0 1 19.82-1.257l-.357 4.35H3.616c-.362 0-.705-.162-.935-.441ZM35.5 69c-2.891 0-4.55-.854-4.793-1.234l.413-4.98c1.32.328 2.61.761 3.861 1.294a1.193 1.193 0 0 0 1.038 0 25.546 25.546 0 0 1 3.86-1.303l.414 4.987C40.049 68.146 38.39 69 35.5 69Zm32.819-2.841c-.23.28-.573.441-.935.441H42.605l-.36-4.358a40.157 40.157 0 0 1 19.829 1.268 2.407 2.407 0 0 0 3.086-2.686l-3.762-22.627h1.92l5.256 26.977a1.19 1.19 0 0 1-.255.985Z"/>
    <path fill="#2DC071" d="M31.523 27.822a1.2 1.2 0 0 0-.085 1.694 7.237 7.237 0 0 0 3.846 2.218 3.575 3.575 0 0 1-2.921 1.506 1.2 1.2 0 1 0 0 2.4 5.95 5.95 0 0 0 5.59-3.848 7.242 7.242 0 0 0 5.925-5.76 1.2 1.2 0 1 0-2.357-.452 4.783 4.783 0 0 1-1.987 3.047 4.899 4.899 0 0 1-6.317-.72 1.2 1.2 0 0 0-1.694-.085ZM27.34 26.52a1.2 1.2 0 0 0 1.2-1.2 3.12 3.12 0 0 1 3.12-3.12 1.2 1.2 0 1 0 0-2.4 5.526 5.526 0 0 0-5.52 5.52 1.2 1.2 0 0 0 1.2 1.2ZM36.7 3V1.8a1.2 1.2 0 0 0-2.4 0V3a1.2 1.2 0 0 0 2.4 0Zm18.492 6.211-1.2 1.2a1.2 1.2 0 1 0 1.697 1.697l1.2-1.2a1.2 1.2 0 1 0-1.697-1.697ZM16.16 12.46a1.2 1.2 0 0 0 .848-2.049l-1.2-1.2a1.2 1.2 0 1 0-1.697 1.697l1.2 1.2a1.2 1.2 0 0 0 .848.351Zm9.237-5.05a1.2 1.2 0 0 0 1.109-1.66l-1.379-3.326a1.2 1.2 0 1 0-2.216.92l1.377 3.326a1.2 1.2 0 0 0 1.11.74ZM47.44 1.775a1.2 1.2 0 0 0-1.567.65l-1.38 3.326a1.2 1.2 0 1 0 2.218.92l1.378-3.326a1.2 1.2 0 0 0-.65-1.57Zm12.45 19.924a1.2 1.2 0 0 0 .46-.093l3.325-1.377a1.2 1.2 0 0 0-.918-2.218L59.43 19.39a1.2 1.2 0 0 0 .46 2.31Zm-49.24-.093a1.2 1.2 0 1 0 .92-2.217L8.242 18.01a1.2 1.2 0 1 0-.918 2.218l3.325 1.377Z"/>
  </g>
  <defs>
    <clipPath id="a">
      <path fill="#fff" d="M.009.6h70.982v70.8H.009z"/>
    </clipPath>
  </defs>
</svg>
