<svg xmlns="http://www.w3.org/2000/svg" width="72" height="72" fill="none" viewBox="0 0 72 72">
  <g clip-path="url(#a)">
    <g clip-path="url(#b)">
      <path fill="#fff" d="M71.971 57.921v-6.335h-6.757v-4.224H62.96v-3.52h2.253v-6.335H48.369v2.112h14.733v2.111H19.407v2.112h41.442v3.52H14.882c-.97 0-1.76-.79-1.76-1.76s.79-1.76 1.76-1.76h2.413v-2.111h-2.413a3.876 3.876 0 0 0-3.872 3.871 3.876 3.876 0 0 0 3.872 3.872h48.22v2.112H26.708v2.111h43.151v2.112H10.236a5.99 5.99 0 0 0-5.984 5.984 5.99 5.99 0 0 0 5.984 5.983h49.738v-2.111H10.236a3.876 3.876 0 0 1-3.872-3.872 3.876 3.876 0 0 1 3.872-3.872h57.371v3.52H20.795v2.112h46.812v2.112h-5.521v2.111h7.774v2.112H10.236c-4.464 0-8.096-3.631-8.096-8.095s3.632-8.096 8.096-8.096h14.36v-2.111h-9.714a5.99 5.99 0 0 1-5.984-5.984 5.99 5.99 0 0 1 5.984-5.983h31.375v-2.112H14.882c-4.464 0-8.096 3.631-8.096 8.095a8.077 8.077 0 0 0 2.685 6.015C4.199 52.01.029 56.422.029 61.793.029 67.42 4.607 72 10.236 72H71.97v-6.335h-2.25V57.92h2.252Z"/>
      <path fill="#fff" d="M16.571 61.44h2.112v2.113h-2.112V61.44Zm2.886-30.056.47.314c.184.122 4.622 2.993 16.073 2.993s15.889-2.87 16.072-2.993l.47-.314V13.607l6.336-2.112v9.969a3.878 3.878 0 0 0-2.816 3.724v5.28h7.744v-5.28a3.878 3.878 0 0 0-2.816-3.724V10.79l3.69-1.23-11.089-3.697-.667 2.003 5.079 1.693L36 16.895 13.997 9.56 36 2.226 50.92 7.2l.668-2.004L36 0 7.319 9.56l12.138 4.046v17.778Zm42.237-6.196v3.168h-3.52v-3.168c0-.97.79-1.76 1.76-1.76s1.76.79 1.76 1.76ZM21.569 14.31l14.43 4.81 14.432-4.81v8.273h-2.605v2.112h2.605v2.112h-4.576v2.112h4.576v1.273c-1.361.663-5.74 2.387-14.431 2.387-8.698 0-13.077-1.727-14.431-2.387V14.31Zm-9.221 47.13h2.111v2.113h-2.111V61.44Z"/>
      <path fill="#fff" d="M41.631 26.807h2.112v2.112h-2.112v-2.112Z"/>
    </g>
  </g>
  <defs>
    <clipPath id="a">
      <path fill="#fff" d="M0 0h72v72H0z"/>
    </clipPath>
    <clipPath id="b">
      <path fill="#fff" d="M.029 0h71.943v72H.029z"/>
    </clipPath>
  </defs>
</svg>
